<svg width="265" height="264" viewBox="0 0 265 264" fill="none" xmlns="http://www.w3.org/2000/svg">
<path d="M38.6935 245.533C90.3644 270.156 174.096 270.156 225.767 245.533C277.438 220.91 277.373 181.025 225.767 156.402C174.16 131.78 90.3903 131.786 38.7451 156.402C-12.9 181.019 -12.9129 220.923 38.6935 245.533Z" fill="#E2E2E2"/>
<path d="M205.176 62.5237L207.55 60.6981V55.473C207.55 51.338 210.846 46.5322 214.433 44.4614C218.019 42.3907 220.929 44.0679 220.929 48.2094V48.9641C221.683 47.7398 222.712 46.7083 223.935 45.9516C226.515 44.4614 228.612 45.6677 228.612 48.648V48.9964L233.359 46.2548C235.056 45.2742 236.436 46.0677 236.436 48.0287C236.378 49.0961 236.069 50.1348 235.534 51.0605C235 51.9863 234.255 52.773 233.359 53.3571L205.176 69.626C203.479 70.6065 202.099 69.8131 202.099 67.8521C202.157 66.7846 202.466 65.746 203.001 64.8203C203.535 63.8945 204.28 63.1078 205.176 62.5237Z" fill="#E2E2E2"/>
<path d="M34.8811 204.532C34.5457 204.474 34.1909 204.37 33.791 204.267C32.443 203.906 31.1146 203.475 29.8108 202.977C27.2105 202.034 24.7581 200.724 22.5279 199.087C21.3048 198.217 20.2583 197.123 19.4444 195.862C18.6309 194.585 18.342 193.044 18.638 191.559C18.8019 190.826 19.172 190.156 19.7047 189.627C20.2373 189.097 20.9103 188.732 21.6441 188.572C22.3343 188.463 23.0504 188.572 23.7406 188.45C24.094 188.422 24.4292 188.281 24.6972 188.049C24.9652 187.817 25.1522 187.505 25.2307 187.16C25.2335 186.764 25.1263 186.375 24.9211 186.037C23.6678 183.741 22.5896 181.354 21.6957 178.896C20.9475 176.703 20.9023 174.33 21.5667 172.11C22.1308 169.901 23.3388 167.909 25.0372 166.388C25.8113 165.743 26.8822 165.188 27.8175 165.595C28.1149 165.746 28.3761 165.96 28.5832 166.221C28.7903 166.483 28.9384 166.786 29.0174 167.111C29.1618 167.759 29.2353 168.421 29.2367 169.085C29.3288 170.513 29.6019 171.924 30.0495 173.284C30.2498 174.134 30.7375 174.888 31.43 175.419C32.6298 176.168 34.2812 175.58 35.5585 176.187C36.8357 176.793 37.2744 178.187 37.3325 179.503C37.3905 180.819 37.126 182.147 37.2744 183.457C37.3004 183.87 37.4314 184.27 37.655 184.618C38.0101 184.999 38.4213 185.323 38.8742 185.579C39.4693 186.071 39.9463 186.691 40.27 187.392C40.5938 188.093 40.7561 188.858 40.7449 189.63C40.7058 191.173 40.4115 192.699 39.8741 194.146C39.2819 196.169 38.8505 198.235 38.5839 200.326C38.3736 201.607 37.8309 202.81 37.0099 203.816C36.7664 204.133 36.4339 204.371 36.0547 204.498C35.6755 204.626 35.267 204.637 34.8811 204.532Z" fill="#EEEEEE"/>
<path d="M37.0228 203.461C36.9848 203.46 36.9476 203.45 36.9148 203.431C36.882 203.412 36.8548 203.384 36.8357 203.351C29.3077 190.656 26.9273 181.715 26.25 176.445C25.5081 170.704 26.5532 168.014 26.5983 167.904C26.6089 167.877 26.6247 167.852 26.6449 167.831C26.6651 167.81 26.6891 167.793 26.7158 167.782C26.7425 167.77 26.7712 167.764 26.8003 167.763C26.8293 167.763 26.8583 167.768 26.8854 167.778C26.9125 167.789 26.9373 167.805 26.9582 167.825C26.9792 167.845 26.9961 167.869 27.0077 167.896C27.0194 167.922 27.0257 167.951 27.0263 167.98C27.0269 168.009 27.0218 168.038 27.0112 168.065C27.0112 168.11 25.9661 170.813 26.6951 176.451C27.3402 181.67 29.7528 190.533 37.2163 203.132C37.2314 203.157 37.2414 203.184 37.2457 203.213C37.2499 203.242 37.2484 203.271 37.2412 203.3C37.234 203.328 37.2213 203.354 37.2037 203.378C37.1861 203.401 37.1641 203.42 37.1389 203.435C37.1027 203.452 37.063 203.461 37.0228 203.461Z" fill="white"/>
<path d="M32.9975 196.1C23.8245 195.094 21.2313 192.082 21.1216 191.953C21.0806 191.911 21.0576 191.856 21.0576 191.798C21.0576 191.74 21.0806 191.684 21.1216 191.643C21.1415 191.622 21.1655 191.605 21.1921 191.594C21.2187 191.582 21.2474 191.576 21.2764 191.576C21.3054 191.576 21.3341 191.582 21.3607 191.594C21.3873 191.605 21.4113 191.622 21.4312 191.643C21.4312 191.675 24.0503 194.649 33.0104 195.636C33.0629 195.645 33.1106 195.672 33.145 195.713C33.1793 195.754 33.1982 195.805 33.1982 195.859C33.1982 195.912 33.1793 195.963 33.145 196.004C33.1106 196.045 33.0629 196.072 33.0104 196.081L32.9975 196.1Z" fill="white"/>
<path d="M30.4108 190.385C30.3619 190.385 30.3144 190.369 30.2753 190.34C30.2523 190.322 30.233 190.3 30.2186 190.275C30.2042 190.25 30.1949 190.222 30.1913 190.193C30.1877 190.164 30.1898 190.135 30.1976 190.107C30.2054 190.079 30.2186 190.053 30.2366 190.03C33.1459 186.205 33.333 179.935 33.3394 179.87C33.3394 179.841 33.3453 179.813 33.3568 179.786C33.3683 179.759 33.3851 179.735 33.4063 179.715C33.4274 179.695 33.4524 179.68 33.4798 179.67C33.5071 179.66 33.5362 179.656 33.5652 179.657C33.5943 179.657 33.6231 179.663 33.6498 179.675C33.6765 179.686 33.7005 179.703 33.7205 179.724C33.7404 179.745 33.7558 179.771 33.7657 179.798C33.7756 179.825 33.7798 179.854 33.7781 179.883C33.7781 180.148 33.5846 186.334 30.5914 190.295C30.5704 190.323 30.5431 190.346 30.5117 190.361C30.4804 190.377 30.4458 190.385 30.4108 190.385Z" fill="white"/>
<path d="M218.413 165.324C219.303 159.324 219.316 152.003 214.91 141.307C210.504 130.612 211.872 125.006 216.594 123.477C221.316 121.948 231.779 130.07 231.392 143.726C231.011 156.912 222.103 167.801 222.103 167.801L218.413 165.324Z" fill="#EEEEEE"/>
<path opacity="0.1" d="M218.413 165.324C219.303 159.324 219.316 152.003 214.91 141.307C210.504 130.612 211.872 125.006 216.594 123.477C221.316 121.948 231.779 130.07 231.392 143.726C231.011 156.912 222.103 167.801 222.103 167.801L218.413 165.324Z" fill="#E2E2E2"/>
<path d="M220.716 167.091C220.688 167.097 220.66 167.097 220.632 167.091C220.605 167.081 220.58 167.065 220.559 167.044C220.538 167.023 220.521 166.999 220.51 166.972C220.5 166.944 220.494 166.915 220.495 166.886C220.496 166.856 220.503 166.828 220.516 166.801C220.561 166.691 225.386 155.422 225.031 145.191C224.631 133.418 218.11 126.941 218.045 126.877C218.024 126.857 218.008 126.832 217.996 126.806C217.985 126.779 217.979 126.75 217.979 126.721C217.978 126.692 217.984 126.663 217.995 126.636C218.006 126.609 218.022 126.585 218.042 126.564C218.062 126.543 218.087 126.527 218.113 126.515C218.14 126.504 218.169 126.498 218.198 126.498C218.227 126.497 218.256 126.503 218.283 126.514C218.31 126.525 218.334 126.541 218.355 126.561C218.419 126.625 225.064 133.212 225.451 145.178C225.805 155.499 220.935 166.865 220.896 166.975C220.878 167.008 220.852 167.036 220.821 167.056C220.789 167.076 220.753 167.088 220.716 167.091Z" fill="white"/>
<path d="M218.671 170.646C218.671 170.646 221.161 156.144 229.999 147.81C238.836 139.475 253.57 137.888 258.189 142.339C262.807 146.791 259.846 151.119 253.338 152.622C245.984 154.319 241.474 157.286 245.984 159.557C250.17 161.66 249.699 166.22 245.339 168.407C238.372 171.903 225.793 168.575 222.761 175.451L218.671 170.646Z" fill="#EEEEEE"/>
<path d="M220.542 173.716H220.471C220.416 173.696 220.371 173.655 220.346 173.602C220.32 173.549 220.317 173.488 220.335 173.432C222.373 167.762 225.512 162.55 229.573 158.099C232.756 154.656 236.482 151.76 240.604 149.526C244.698 147.266 249.156 145.738 253.776 145.01C253.835 145.005 253.894 145.023 253.94 145.06C253.986 145.097 254.015 145.151 254.021 145.21C254.025 145.239 254.023 145.268 254.015 145.296C254.007 145.324 253.994 145.35 253.976 145.373C253.958 145.396 253.936 145.415 253.91 145.429C253.885 145.443 253.857 145.452 253.828 145.455C249.254 146.19 244.845 147.718 240.797 149.971C234.346 153.474 225.593 160.421 220.735 173.613C220.714 173.645 220.685 173.671 220.651 173.689C220.618 173.707 220.58 173.716 220.542 173.716Z" fill="white"/>
<path d="M225.025 164.595C224.979 164.595 224.933 164.581 224.895 164.554C224.857 164.528 224.828 164.49 224.812 164.446C224.793 164.391 224.797 164.33 224.822 164.277C224.848 164.224 224.893 164.183 224.948 164.163C232.489 161.531 243.3 162.911 243.41 162.924C243.439 162.928 243.466 162.937 243.492 162.952C243.517 162.966 243.539 162.986 243.556 163.009C243.574 163.032 243.587 163.058 243.595 163.086C243.602 163.114 243.604 163.144 243.6 163.172C243.596 163.201 243.587 163.229 243.572 163.254C243.558 163.279 243.538 163.301 243.515 163.319C243.492 163.337 243.466 163.35 243.438 163.357C243.41 163.365 243.381 163.366 243.352 163.363C243.249 163.363 232.534 161.982 225.096 164.582C225.074 164.592 225.049 164.597 225.025 164.595Z" fill="white"/>
<path d="M44.1445 15.8843C44.0906 14.8881 43.8026 13.9185 43.3038 13.0544C42.805 12.1902 42.1096 11.4558 41.2739 10.9108L38.9323 9.55611C38.0428 9.1045 37.0592 8.86914 36.0617 8.86914C35.0641 8.86914 34.0806 9.1045 33.1911 9.55611L14.6708 20.2451C13.7888 20.7993 13.068 21.5757 12.5807 22.4964C12.1612 23.2279 11.8976 24.0384 11.8066 24.8768C11.8066 24.9929 11.8066 25.109 11.8066 25.2251V46.6031C11.8613 47.5999 12.1503 48.5698 12.6502 49.434C13.1501 50.2982 13.8468 51.0323 14.6837 51.5766L17.0189 52.9313L17.3156 53.0861L17.4253 53.1313L17.6253 53.2151L17.7801 53.2732L17.9478 53.3313L18.1349 53.3829L18.2768 53.4216L18.4961 53.4732H18.6058L18.8703 53.5183H18.9219C20.2444 53.7351 21.6015 53.5202 22.7924 52.9055L41.2739 42.2423C42.1109 41.6966 42.8076 40.9613 43.3075 40.0961C43.8073 39.2309 44.0963 38.26 44.151 37.2623L44.1445 15.8843Z" fill="#EEEEEE"/>
<path opacity="0.4" d="M20.7216 27.0636C20.3899 27.6129 20.1421 28.2086 19.9862 28.8311C20.3713 27.2188 21.3623 25.8166 22.7536 24.9155L41.2739 14.2265C42.8608 13.3105 44.1509 14.0523 44.1509 15.8843C44.0963 14.8875 43.8073 13.9176 43.3074 13.0534C42.8074 12.1892 42.1108 11.4551 41.2739 10.9108L38.9322 9.55611C38.0427 9.1045 37.0592 8.86914 36.0616 8.86914C35.064 8.86914 34.0805 9.1045 33.191 9.55611L14.6708 20.2451C13.7887 20.7993 13.068 21.5757 12.5807 22.4964L12.6387 22.3932L20.7216 27.0636Z" fill="white"/>
<path opacity="0.1" d="M22.1602 53.2022L22.0247 53.2409L21.7925 53.2861H21.5732H21.3474C21.0806 53.2665 20.8252 53.1701 20.612 53.0087L20.5088 52.9119L20.4507 52.8603L20.3733 52.7636L20.3088 52.6797L20.2443 52.5765L20.1862 52.4733C20.1862 52.4733 20.1862 52.4023 20.1411 52.3636C20.1212 52.324 20.1039 52.283 20.0895 52.2411L19.9863 52.1378V52.0088C19.9863 51.9701 19.9863 51.9314 19.9863 51.8927C19.9827 51.8304 19.9827 51.7679 19.9863 51.7056C19.9827 51.6713 19.9827 51.6367 19.9863 51.6024C19.9863 51.5057 19.9863 51.4025 19.9863 51.2928V29.8955C19.9866 29.6642 20.006 29.4333 20.0443 29.2052C20.0443 29.1214 20.0443 29.0311 20.0959 28.9472V28.844C20.2437 28.223 20.4828 27.6273 20.8055 27.0765L12.6388 22.3932L12.5807 22.4964C12.1612 23.2279 11.8976 24.0384 11.8066 24.8768C11.8066 24.9929 11.8066 25.109 11.8066 25.2251V46.6031C11.8613 47.5999 12.1503 48.5698 12.6502 49.434C13.1501 50.2982 13.8468 51.0323 14.6837 51.5766L17.0189 52.9313L17.3156 53.0861L17.4253 53.1313L17.6253 53.2151L17.7801 53.2732L17.9478 53.3312L18.1349 53.3829L18.2768 53.4216L18.4961 53.4732H18.6058L18.8703 53.5183H18.9219C20.0108 53.6838 21.1238 53.5751 22.1602 53.2022Z" fill="#F5F5F5"/>
<path d="M36.0552 35.4884C37.2922 32.7252 37.9256 29.7298 37.913 26.7024C38.5174 25.7648 39.0253 24.7685 39.429 23.7286C38.9082 24.3392 38.322 24.8908 37.6808 25.3735C38.3314 24.4641 38.7861 23.4295 39.0161 22.3352C38.4578 23.1114 37.8081 23.8175 37.0809 24.4382C36.7592 24.1989 36.369 24.0696 35.9681 24.0696C35.5672 24.0696 35.177 24.1989 34.8554 24.4382C32.9201 25.5735 31.4493 28.8505 31.8944 31.1341C29.3657 32.4243 27.1208 32.1017 25.6243 30.489C24.8244 32.7726 25.2114 34.9401 26.5661 35.3594C26.1515 35.6083 25.6653 35.7105 25.1856 35.6497C25.1856 37.5849 26.1597 38.7267 27.624 38.2687C27.2358 38.6552 26.7665 38.9505 26.25 39.1331C26.637 40.52 27.7595 41.0683 29.0948 40.3136C28.0553 42.1619 26.4812 43.6528 24.5792 44.5905C25.921 44.9646 27.5208 44.713 29.2432 43.7196C32.2492 41.9844 34.5586 38.8428 36.0358 35.4432" fill="white"/>
<path d="M44.1445 93.7262C44.0866 92.7344 43.7967 91.77 43.2982 90.9106C42.7996 90.0513 42.1062 89.321 41.2739 88.7785L38.9323 87.4238C38.0428 86.9722 37.0593 86.7368 36.0617 86.7368C35.0641 86.7368 34.0806 86.9722 33.1911 87.4238L14.6773 98.1128C13.7953 98.667 13.0745 99.4434 12.5872 100.364C12.1676 101.096 11.9041 101.906 11.8131 102.744C11.8131 102.861 11.8131 102.977 11.8131 103.093V124.471C11.8696 125.461 12.1575 126.425 12.6538 127.284C13.1501 128.144 13.8409 128.875 14.6708 129.419L17.006 130.773L17.3027 130.922L17.4124 130.973L17.6124 131.057L17.7672 131.115L17.9349 131.173L18.122 131.225L18.2639 131.263L18.4832 131.315H18.5929L18.8574 131.36H18.909C20.235 131.567 21.5923 131.341 22.7795 130.715L41.2739 120.084C42.111 119.538 42.8076 118.803 43.3075 117.938C43.8073 117.073 44.0963 116.102 44.151 115.104L44.1445 93.7262Z" fill="#EEEEEE"/>
<path opacity="0.4" d="M20.7216 104.905C20.3989 105.456 20.1598 106.052 20.012 106.673C20.3908 105.065 21.3721 103.663 22.7536 102.757L41.2739 92.0684C42.8608 91.1524 44.1509 91.8942 44.1509 93.7262C44.0923 92.7338 43.8014 91.7691 43.3017 90.9097C42.802 90.0503 42.1074 89.3203 41.2739 88.7785L38.9322 87.4238C38.0427 86.9722 37.0592 86.7368 36.0616 86.7368C35.064 86.7368 34.0805 86.9722 33.191 87.4238L14.6772 98.1128C13.7952 98.667 13.0744 99.4434 12.5872 100.364L12.6452 100.261L20.7216 104.905Z" fill="white"/>
<path opacity="0.1" d="M22.1601 131.044L22.0247 131.083C21.9487 131.106 21.8711 131.123 21.7924 131.134H21.5731H21.3473C21.0806 131.115 20.8252 131.019 20.6119 130.857L20.5087 130.76L20.4507 130.709L20.3733 130.606L20.3088 130.528L20.2442 130.425L20.1862 130.322C20.1862 130.283 20.1862 130.251 20.141 130.212C20.12 130.171 20.1027 130.127 20.0894 130.083L20.0507 129.973L20.012 129.819C20.012 129.819 20.012 129.748 20.012 129.709C20.0085 129.647 20.0085 129.584 20.012 129.522C20.0085 129.487 20.0085 129.453 20.012 129.419C20.012 129.322 20.012 129.212 20.012 129.102V107.737C20.0124 107.506 20.0318 107.275 20.0701 107.047C20.0701 106.957 20.0701 106.873 20.1217 106.789V106.686C20.2695 106.065 20.5086 105.469 20.8313 104.918L12.7484 100.248L12.6904 100.351C12.2708 101.083 12.0072 101.893 11.9163 102.732C11.9163 102.848 11.9163 102.964 11.9163 103.08V124.458C11.9591 125.442 12.2303 126.402 12.7084 127.263C13.1864 128.124 13.8583 128.862 14.6708 129.419L17.0059 130.773L17.3027 130.922L17.4123 130.973L17.6123 131.057L17.7671 131.115L17.9349 131.173L18.1219 131.225L18.2639 131.264L18.4832 131.315H18.5928L18.8573 131.36H18.9089C20.0021 131.528 21.1198 131.419 22.1601 131.044Z" fill="#F5F5F5"/>
<path d="M32.0106 103.615C33.9071 102.519 34.1329 102.402 34.8812 102.015C35.2751 101.779 35.715 101.629 36.1713 101.577C36.4631 101.547 36.7548 101.633 36.9842 101.815C37.242 102.011 37.4298 102.285 37.5196 102.596C37.6858 103.12 37.7685 103.666 37.7647 104.215C37.797 105.189 37.8034 105.505 37.8034 108.015C37.8034 110.524 37.8034 110.84 37.7647 111.885C37.7534 112.524 37.6712 113.161 37.5196 113.782C37.4028 114.268 37.2228 114.736 36.9842 115.175C36.7702 115.605 36.4965 116.002 36.1713 116.356C35.7921 116.773 35.3581 117.138 34.8812 117.439C34.1329 117.917 33.9071 118.084 32.0106 119.149C30.114 120.213 29.8947 120.368 29.1464 120.755C28.752 120.989 28.3122 121.137 27.8563 121.187C27.5625 121.217 27.2687 121.132 27.037 120.949C26.7829 120.751 26.5977 120.477 26.5081 120.168C26.3422 119.647 26.2595 119.102 26.2629 118.555C26.2629 117.575 26.2178 117.265 26.2178 114.756C26.2178 112.246 26.2178 111.924 26.2629 110.885C26.2725 110.233 26.3547 109.584 26.5081 108.95C26.6265 108.466 26.8042 107.998 27.037 107.557C27.2564 107.129 27.5319 106.732 27.8563 106.376C28.2341 105.957 28.6683 105.592 29.1464 105.292C29.8947 104.815 30.1205 104.647 32.0106 103.583V103.615ZM32.0106 101.88C30.0753 102.99 29.8431 103.17 29.0884 103.622C28.4511 104.02 27.8716 104.504 27.366 105.06C26.8535 105.601 26.4193 106.211 26.0758 106.873C25.7161 107.553 25.441 108.274 25.2566 109.021C25.0559 109.836 24.9455 110.671 24.9276 111.511C24.9276 112.537 24.8824 112.866 24.8824 115.433C24.8824 118.001 24.8825 118.323 24.9276 119.304C24.9277 120.02 25.0387 120.731 25.2566 121.413C25.3995 121.888 25.6857 122.307 26.0758 122.613C26.4418 122.898 26.9045 123.03 27.366 122.981C27.9731 122.92 28.5603 122.731 29.0884 122.426C29.8431 122.032 30.0818 121.903 32.0106 120.794C33.9394 119.684 34.1781 119.504 34.9392 119.046C36.2073 118.261 37.2376 117.146 37.9195 115.82C38.2783 115.141 38.5514 114.419 38.7323 113.672C38.9356 112.859 39.0481 112.026 39.0678 111.188C39.0678 110.156 39.1065 109.827 39.1065 107.26C39.1065 104.693 39.1065 104.376 39.0678 103.389C39.0669 102.675 38.9537 101.966 38.7323 101.287C38.5904 100.811 38.3069 100.39 37.9195 100.08C37.5532 99.7958 37.0901 99.6661 36.6294 99.719C36.0216 99.7759 35.4337 99.9653 34.907 100.274C34.1458 100.661 33.9071 100.79 31.9783 101.906L32.0106 101.88ZM31.9783 106.505C29.9657 107.666 28.3336 110.782 28.3336 113.466C28.3336 116.149 29.9657 117.381 31.9783 116.22C33.991 115.059 35.623 111.943 35.623 109.26C35.623 106.576 33.991 105.344 31.9783 106.505ZM31.9783 114.517C30.6882 115.272 29.6173 114.472 29.6173 112.73C29.6173 110.989 30.6753 108.963 31.9783 108.215C33.2814 107.466 34.3458 108.26 34.3458 110.008C34.3458 111.756 33.2878 113.769 31.9783 114.524V114.517ZM36.6165 103.641C36.6165 102.996 36.2359 102.725 35.765 102.996C35.505 103.182 35.2924 103.427 35.1445 103.71C34.9966 103.994 34.9174 104.308 34.9134 104.628C34.9134 105.273 35.294 105.538 35.765 105.273C36.0241 105.088 36.2361 104.844 36.384 104.562C36.5319 104.279 36.6115 103.966 36.6165 103.647" fill="white"/>
<path d="M76.3728 43.9518C76.3222 42.9577 76.0384 41.9894 75.5441 41.1254C75.0499 40.2613 74.3592 39.5258 73.528 38.9782L71.1863 37.6236C70.2957 37.1719 69.3111 36.9365 68.3125 36.9365C67.3139 36.9365 66.3293 37.1719 65.4386 37.6236L46.9248 48.3125C46.1419 48.832 45.4809 49.515 44.9876 50.3147C44.4942 51.1143 44.1802 52.0115 44.0671 52.9442C44.0671 53.0603 44.0671 53.1764 44.0671 53.2926V74.6705C44.1206 75.6669 44.4084 76.6367 44.9072 77.5009C45.406 78.3651 46.1017 79.0994 46.9377 79.6441L49.2794 80.9988L49.5761 81.1536L49.6858 81.1987L49.8858 81.2826L50.0341 81.3407L50.2083 81.3987L50.3889 81.4503L50.5373 81.489L50.7566 81.5406H50.8663L51.1308 81.5858H51.1824C52.5049 81.8021 53.8619 81.5872 55.0529 80.973L73.528 70.3098C74.3641 69.7637 75.0598 69.0282 75.5586 68.1629C76.0573 67.2977 76.3451 66.327 76.3986 65.3298L76.3728 43.9518Z" fill="#EEEEEE"/>
<path opacity="0.4" d="M52.9563 55.131C52.6345 55.683 52.3934 56.2782 52.2403 56.8986C52.6206 55.2894 53.6043 53.8877 54.9883 52.9829L73.5279 42.2939C75.1148 41.3779 76.3985 42.1198 76.3985 43.9518C76.3451 42.9554 76.0573 41.9857 75.5585 41.1214C75.0597 40.2572 74.364 39.5229 73.5279 38.9782L71.1863 37.6236C70.2956 37.1719 69.3111 36.9365 68.3124 36.9365C67.3138 36.9365 66.3293 37.1719 65.4386 37.6236L46.9248 48.3125C46.0461 48.8688 45.3279 49.6448 44.8412 50.5639L44.8928 50.4607L52.9563 55.131Z" fill="white"/>
<path opacity="0.1" d="M54.3949 81.2698L54.2529 81.3085C54.1792 81.3318 54.1037 81.349 54.0272 81.3601H53.8143H53.5305C53.2659 81.3396 53.0128 81.2433 52.8015 81.0827L52.6983 80.9859L52.6402 80.9343L52.5564 80.8311L52.4983 80.7537C52.4731 80.7218 52.4515 80.6871 52.4338 80.6505L52.3758 80.5473C52.3758 80.515 52.3758 80.4763 52.3242 80.4376L52.279 80.315L52.2403 80.1989C52.2403 80.1516 52.2274 80.1 52.2016 80.0441C52.1979 80.0076 52.1979 79.9709 52.2016 79.9344C52.198 79.8721 52.198 79.8097 52.2016 79.7474C52.1981 79.7131 52.1981 79.6785 52.2016 79.6442C52.195 79.541 52.195 79.4376 52.2016 79.3345V57.963C52.2052 57.7319 52.2246 57.5013 52.2596 57.2728C52.2596 57.1825 52.2597 57.0986 52.3048 57.0147C52.3073 56.9804 52.3073 56.9459 52.3048 56.9115C52.4579 56.2912 52.6991 55.696 53.0208 55.144L44.9315 50.4736L44.8799 50.5768C44.4576 51.3071 44.1938 52.1182 44.1058 52.9572C44.1058 53.0733 44.1058 53.1894 44.1058 53.3055V74.6835C44.1593 75.6799 44.4471 76.6496 44.9459 77.5138C45.4447 78.3781 46.1404 79.1124 46.9764 79.6571L49.3181 81.0117L49.6148 81.1665L49.7245 81.2117L49.9245 81.2956L50.0728 81.3536L50.247 81.4117L50.4276 81.4633L50.576 81.502L50.7953 81.5536H50.905L51.1695 81.5987H51.2211C52.29 81.7493 53.3795 81.6364 54.3949 81.2698Z" fill="#F5F5F5"/>
<path d="M62.2455 73.503L65.3354 71.7161V61.3948L67.49 60.1498L67.7158 56.5631L65.3354 57.9372V55.9697C65.3354 55.1569 65.458 54.7634 66.045 54.4279L67.7158 53.4603V49.8737L65.5806 51.1122C64.5241 51.669 63.6489 52.5163 63.058 53.554C62.4671 54.5918 62.1852 55.7769 62.2455 56.9695V59.7498L60.6263 60.6594V64.1557L62.2326 63.2333L62.2455 73.503Z" fill="white"/>
<path d="M34.5392 208.118L108.549 250.835C109.419 251.277 110.38 251.508 111.355 251.508C112.331 251.508 113.292 251.277 114.161 250.835L229.579 184.205C231.127 183.308 231.127 181.863 229.579 180.98L155.569 138.237C154.701 137.795 153.74 137.564 152.766 137.564C151.792 137.564 150.832 137.795 149.963 138.237L34.5392 204.893C32.991 205.77 32.991 207.215 34.5392 208.118Z" fill="#C6C6C6"/>
<path d="M36.8679 197.797L108.781 239.321C109.66 239.766 110.631 239.998 111.617 239.998C112.602 239.998 113.573 239.766 114.452 239.321L228.47 173.503C230.037 172.6 230.037 171.136 228.47 170.233L156.55 128.709C155.671 128.263 154.7 128.031 153.715 128.031C152.729 128.031 151.758 128.263 150.879 128.709L36.8679 194.572C35.3004 195.442 35.3004 196.907 36.8679 197.797Z" fill="#9B084E"/>
<path d="M108.781 239.334L36.8679 197.797C35.4681 196.991 35.3197 195.733 36.4228 194.83C35.7219 195.385 35.1463 196.083 34.7339 196.877C34.3214 197.67 34.0814 198.542 34.0295 199.435V202.1C34.0832 203.084 34.3682 204.043 34.8613 204.897C35.3545 205.751 36.0419 206.476 36.8679 207.015L108.781 248.533C109.654 248.996 110.631 249.229 111.62 249.21V240.011C110.631 240.031 109.654 239.797 108.781 239.334Z" fill="#78053C"/>
<path d="M228.47 182.715C229.295 182.177 229.981 181.452 230.473 180.599C230.965 179.746 231.249 178.789 231.301 177.806V175.142C231.25 174.249 231.01 173.377 230.598 172.583C230.185 171.789 229.609 171.091 228.908 170.536C230.011 171.439 229.869 172.697 228.47 173.503L114.452 239.334C113.581 239.796 112.606 240.029 111.62 240.011V249.223C112.606 249.241 113.581 249.008 114.452 248.545L228.47 182.715Z" fill="#9B084E"/>
<path d="M75.463 216.975C76.6831 217.596 78.0325 217.919 79.4012 217.919C80.77 217.919 82.1194 217.596 83.3394 216.975C85.5134 215.685 85.5134 213.685 83.3394 212.427C82.1183 211.811 80.7693 211.489 79.4012 211.489C78.0331 211.489 76.6842 211.811 75.463 212.427C73.3149 213.685 73.3149 215.724 75.463 216.975Z" fill="#9B084E"/>
<path d="M119.974 230.522L51.1371 190.753C50.2017 190.211 50.2017 189.327 51.1371 188.785L140.803 136.998C141.33 136.731 141.912 136.592 142.503 136.592C143.094 136.592 143.676 136.731 144.203 136.998L213.039 176.767C213.981 177.309 213.981 178.187 213.039 178.703L123.373 230.496C122.848 230.767 122.267 230.911 121.676 230.915C121.086 230.92 120.502 230.785 119.974 230.522Z" fill="white"/>
<path d="M187.307 152.39C187.616 152.546 187.958 152.627 188.304 152.627C188.65 152.627 188.991 152.546 189.3 152.39C189.408 152.336 189.498 152.254 189.561 152.152C189.624 152.05 189.658 151.932 189.658 151.812C189.658 151.693 189.624 151.575 189.561 151.473C189.498 151.371 189.408 151.289 189.3 151.235C188.991 151.079 188.65 150.998 188.304 150.998C187.958 150.998 187.616 151.079 187.307 151.235C186.752 151.551 186.752 152.067 187.307 152.39Z" fill="#9B084E"/>
<path d="M190.494 161.434C191.112 161.746 191.795 161.908 192.487 161.908C193.179 161.908 193.862 161.746 194.48 161.434C195.583 160.789 195.583 159.763 194.48 159.131C193.863 158.816 193.18 158.652 192.487 158.652C191.794 158.652 191.111 158.816 190.494 159.131C189.391 159.737 189.391 160.795 190.494 161.434Z" fill="#9B084E"/>
<path d="M187.707 157.421C188.442 157.002 188.404 156.292 187.617 155.841L174.496 148.261C174.074 148.037 173.605 147.916 173.128 147.907C172.65 147.898 172.178 148.002 171.748 148.21C171.012 148.635 171.051 149.345 171.838 149.796L184.959 157.376C185.381 157.599 185.85 157.719 186.328 157.727C186.805 157.735 187.278 157.63 187.707 157.421Z" fill="#9B084E"/>
<path d="M139.642 147.694C138.7 148.235 138.7 149.113 139.642 149.629L192.087 179.915C192.615 180.182 193.199 180.321 193.79 180.321C194.382 180.321 194.965 180.182 195.493 179.915L207.105 173.226L151.254 140.972L139.642 147.694Z" fill="#E2E2E2"/>
<path d="M140.029 152.951L135.843 150.538C135.668 150.449 135.474 150.403 135.278 150.403C135.082 150.403 134.889 150.449 134.714 150.538L132.075 152.061C131.759 152.241 131.759 152.532 132.075 152.706L132.437 152.919L131.101 153.628C130.946 153.712 130.959 153.764 131.14 153.751L133.488 153.525L136.262 155.125C136.439 155.211 136.633 155.257 136.83 155.257C137.026 155.257 137.22 155.211 137.397 155.125L140.029 153.603C140.095 153.577 140.152 153.533 140.192 153.475C140.233 153.417 140.254 153.347 140.254 153.277C140.254 153.206 140.233 153.137 140.192 153.079C140.152 153.021 140.095 152.976 140.029 152.951Z" fill="#E2E2E2"/>
<path d="M141.261 159.247L140.952 158.602C140.552 157.757 140.306 156.609 141.468 155.944C141.908 155.721 142.394 155.605 142.887 155.605C143.38 155.605 143.866 155.721 144.306 155.944C144.912 156.293 145.048 156.815 144.712 157.234C145.465 157.028 146.269 157.111 146.964 157.467C147.136 157.523 147.286 157.632 147.393 157.778C147.499 157.925 147.557 158.101 147.557 158.283C147.557 158.464 147.499 158.64 147.393 158.787C147.286 158.934 147.136 159.043 146.964 159.099C145.828 159.744 143.841 159.628 142.377 159.402L141.261 159.247Z" fill="#E2E2E2"/>
<path d="M83.7846 181.902L136.236 212.189C136.764 212.456 137.347 212.595 137.939 212.595C138.531 212.595 139.114 212.456 139.642 212.189L180.489 188.598C181.424 188.056 181.424 187.179 180.489 186.663L128.037 156.351C127.509 156.084 126.926 155.944 126.334 155.944C125.742 155.944 125.159 156.084 124.631 156.351L83.7846 179.941C82.8428 180.483 82.8428 181.36 83.7846 181.902Z" fill="#E2E2E2"/>
<path d="M84.1845 185.199L79.9786 182.78C79.8019 182.693 79.6077 182.648 79.4109 182.648C79.2141 182.648 79.0199 182.693 78.8432 182.78L76.2048 184.302C76.1408 184.328 76.0859 184.373 76.0473 184.43C76.0087 184.488 75.9881 184.555 75.9881 184.624C75.9881 184.694 76.0087 184.761 76.0473 184.819C76.0859 184.876 76.1408 184.921 76.2048 184.947L76.5725 185.16L75.2372 185.863C75.076 185.947 75.0953 186.005 75.2372 185.986L77.5853 185.766L80.3592 187.366C80.5359 187.453 80.7301 187.498 80.9268 187.498C81.1236 187.498 81.3178 187.453 81.4945 187.366L84.1329 185.837C84.2 185.818 84.2596 185.779 84.3039 185.725C84.3481 185.671 84.3748 185.605 84.3804 185.536C84.386 185.466 84.3703 185.397 84.3353 185.337C84.3002 185.276 84.2476 185.228 84.1845 185.199Z" fill="#E2E2E2"/>
<path d="M85.3844 191.488L85.0812 190.843C84.6748 189.998 84.4361 188.85 85.5973 188.179C86.0361 187.956 86.5212 187.84 87.0132 187.84C87.5053 187.84 87.9904 187.956 88.4292 188.179C89.0743 188.534 89.1775 189.056 88.8356 189.469C89.5914 189.27 90.3938 189.353 91.0934 189.701C91.2649 189.759 91.414 189.869 91.5196 190.016C91.6252 190.163 91.682 190.339 91.682 190.52C91.682 190.701 91.6252 190.878 91.5196 191.025C91.414 191.172 91.2649 191.282 91.0934 191.34C89.958 191.985 87.9712 191.869 86.5004 191.643L85.3844 191.488Z" fill="#E2E2E2"/>
<path d="M68.7865 188.598C69.3145 188.331 69.8979 188.192 70.4895 188.192C71.0812 188.192 71.6645 188.331 72.1925 188.598L124.638 218.878C125.579 219.42 125.579 220.304 124.638 220.846L113.936 227.026L58.0975 194.772L68.7865 188.598Z" fill="#E2E2E2"/>
<path d="M127.07 181.625L97.2152 189.643L136.249 212.182C136.777 212.449 137.36 212.588 137.952 212.588C138.544 212.588 139.127 212.449 139.655 212.182L140.5 211.692L157.343 186.979L121.573 193.997L127.07 181.625Z" fill="#C6C6C6"/>
<path d="M141.771 164.285L128.037 156.351C127.509 156.084 126.926 155.944 126.334 155.944C125.742 155.944 125.159 156.084 124.631 156.351L109.278 165.22C109.981 166.556 111.433 167.801 113.632 168.878C120.083 171.962 130.585 171.962 137.055 168.878C139.765 167.588 141.332 165.962 141.771 164.285Z" fill="#C6C6C6"/>
<path opacity="0.2" d="M208.001 161.492L139.158 121.729C138.631 121.462 138.049 121.323 137.458 121.323C136.868 121.323 136.286 121.462 135.759 121.729L46.0925 173.516C45.1571 174.058 45.1571 174.935 46.0925 175.451L60.6455 183.837L114.955 215.208C115.482 215.475 116.064 215.614 116.655 215.614C117.245 215.614 117.828 215.475 118.354 215.208L199.067 168.575L207.995 163.414C208.943 162.918 208.943 162.034 208.001 161.492Z" fill="white"/>
<path d="M208.169 161.208L151.247 128.309L139.326 121.445C138.749 121.15 138.11 120.996 137.462 120.996C136.813 120.996 136.174 121.15 135.597 121.445L45.9313 173.232C45.6758 173.331 45.456 173.504 45.301 173.73C45.146 173.955 45.063 174.223 45.063 174.497C45.063 174.77 45.146 175.038 45.301 175.264C45.456 175.489 45.6758 175.663 45.9313 175.761L60.4843 184.147L114.813 215.537C115.39 215.833 116.029 215.988 116.677 215.988C117.326 215.988 117.965 215.833 118.542 215.537L199.248 168.904L208.182 163.743C208.437 163.643 208.656 163.469 208.81 163.243C208.965 163.017 209.047 162.749 209.047 162.476C209.047 162.202 208.965 161.934 208.81 161.708C208.656 161.482 208.437 161.308 208.182 161.208H208.169ZM207.84 163.175L198.906 168.336L118.2 214.969C117.722 215.207 117.195 215.332 116.661 215.332C116.127 215.332 115.6 215.207 115.123 214.969L60.8133 183.605L46.2668 175.219C46.1113 175.179 45.9736 175.089 45.8752 174.962C45.7769 174.835 45.7235 174.68 45.7235 174.519C45.7235 174.359 45.7769 174.203 45.8752 174.076C45.9736 173.949 46.1113 173.859 46.2668 173.819L135.933 122.032C136.411 121.795 136.938 121.672 137.471 121.672C138.005 121.672 138.532 121.795 139.01 122.032L150.937 128.902L207.859 161.801C208.015 161.841 208.153 161.932 208.251 162.058C208.349 162.185 208.403 162.341 208.403 162.501C208.403 162.662 208.349 162.818 208.251 162.944C208.153 163.071 208.015 163.161 207.859 163.201L207.84 163.175Z" fill="white"/>
<path d="M179.231 0.234736C180.205 -0.313583 181 0.131521 181 1.22816V128.044C180.966 128.642 180.788 129.224 180.481 129.743C180.174 130.262 179.746 130.703 179.231 131.031L128.413 159.608L122.451 178.961C121.915 180.715 120.842 180.793 120.06 179.122L114.602 167.388L99.7643 175.729C98.7906 176.277 97.9957 175.832 97.9957 174.735V47.9191C98.0289 47.3209 98.2063 46.7388 98.5135 46.2199C98.8208 45.701 99.2493 45.2599 99.7643 44.9323L179.231 0.234736Z" fill="#EEEEEE"/>
<path d="M172.74 98.1321C172.679 98.9532 172.42 99.7487 171.984 100.454C171.548 101.159 170.947 101.754 170.229 102.19L142.31 117.891C140.925 118.665 139.799 118.117 139.799 116.652C139.862 115.832 140.122 115.037 140.558 114.332C140.994 113.627 141.594 113.032 142.31 112.595L170.243 96.9C171.62 96.1194 172.74 96.6742 172.74 98.1321Z" fill="white"/>
<path d="M167.593 113.814C167.531 114.635 167.271 115.43 166.835 116.135C166.399 116.839 165.799 117.434 165.083 117.872L141.892 130.928C140.508 131.708 139.389 131.154 139.389 129.689C139.449 128.87 139.708 128.076 140.143 127.372C140.578 126.668 141.177 126.074 141.892 125.638L165.109 112.582C166.494 111.801 167.593 112.356 167.593 113.814Z" fill="white"/>
<path d="M125.763 136.121L125.704 135.36C124.438 138.469 122.531 140.701 120.404 141.894C116.649 144.01 113.29 142.133 113.29 136.534C113.29 131.257 115.94 125.471 120.067 123.168C122.776 121.645 124.624 122.768 124.929 123.432V122.142C124.929 121.426 125.677 120.426 126.591 119.91C127.505 119.394 128.26 119.865 128.26 120.968V132.934C128.26 134.457 128.843 134.766 129.671 134.295C131.182 133.45 132.573 129.831 132.573 125.709C132.573 117.749 128.287 114.04 121.451 117.884C115.046 121.484 109.965 130.58 109.965 138.527C109.965 146.326 114.768 149.3 121.054 145.771C122.859 144.679 124.459 143.294 125.783 141.675C126.498 140.823 127.28 140.565 127.625 141.172C127.969 141.778 127.757 143.03 127.048 143.881C125.372 145.929 123.358 147.691 121.087 149.093C113.264 153.486 107.349 149.655 107.349 140.017C107.349 130.173 113.542 119.136 121.484 114.665C129.426 110.195 135.249 114.169 135.249 124.129C135.249 130.167 132.818 135.456 129.367 137.392C127.459 138.411 126.101 138.172 125.763 136.121ZM116.894 134.308C116.894 137.392 118.431 139.082 120.775 137.766C123.12 136.45 124.75 133.07 124.75 129.954C124.75 126.954 123.18 125.438 120.742 126.806C118.431 128.083 116.894 131.354 116.894 134.308Z" fill="white"/>
<path d="M138.397 41.0424C151.757 33.3015 162.581 39.5845 162.581 55.0084C162.581 70.4323 151.757 89.1977 138.397 96.8999C125.038 104.602 114.213 98.3578 114.213 82.9339C114.213 67.5101 125.038 48.7834 138.397 41.0424Z" fill="white"/>
<path d="M138.397 41.0424C151.757 33.3015 162.581 39.5845 162.581 55.0084C162.581 70.4323 151.757 89.1977 138.397 96.8999C125.038 104.602 114.213 98.3578 114.213 82.9339C114.213 67.5101 125.038 48.7834 138.397 41.0424Z" fill="white"/>
<path d="M129.579 61.5238C128.471 61.7153 127.48 62.3308 126.818 63.2397C125.631 64.7686 125.876 66.9489 126.818 71.858L130.489 71.2968L129.579 61.5238Z" fill="#9B084E"/>
<path d="M150.97 54.2989C151.794 54.0787 152.572 53.7115 153.266 53.2151C154.395 52.2669 154.685 53.4732 154.066 54.7504C153.656 55.6609 153.068 56.481 152.339 57.1631C151.609 57.8451 150.751 58.3757 149.815 58.7241C149.776 58.5693 148.757 56.1438 148.757 56.1438L150.97 54.2989Z" fill="#9B084E"/>
<path d="M131.688 86.8432C131.688 86.8432 124.851 91.2555 123.367 92.8102C121.883 94.3648 121.27 99.2094 120.722 105.138C120.722 105.138 128.508 108.421 140.72 102.377C152.931 96.3323 154.034 91.5523 154.034 91.5523C154.034 91.5523 152.454 84.3725 151.867 82.3792C151.125 79.857 149.693 78.0379 141.365 81.818L131.688 86.8432Z" fill="#9B084E"/>
<path d="M131.301 71.0838C130.753 71.5547 129.979 70.7161 129.308 70.1936C128.637 69.6711 126.444 69.297 125.347 71.8966C124.251 74.4963 126.766 76.9863 128.25 77.6249C128.758 77.8384 129.316 77.8996 129.858 77.8011C130.4 77.7026 130.901 77.4487 131.301 77.0702L131.688 86.8431C131.688 86.8431 133.624 90.1911 138.913 89.4944C144.203 88.7977 143.1 83.4823 141.371 81.818V79.8053C141.371 79.8053 144.1 79.6247 145.383 78.9409C146.074 78.5732 147.712 76.1477 148.77 73.6448C150.952 69.0342 151.449 63.8052 150.176 58.866C148.286 51.3315 139.649 53.4022 134.501 58.021C129.353 62.6397 131.301 71.0838 131.301 71.0838Z" fill="#FFA8A7"/>
<path d="M152.46 46.7385C151.996 45.2161 151.712 45.487 147.977 48.1125C145.124 50.121 141.94 51.6124 138.571 52.5184C135.939 53.3183 132.34 53.9505 130.489 56.3889C129.692 57.4376 129.286 58.7309 129.34 60.0465C129.183 59.901 128.993 59.7968 128.786 59.7433C127.876 59.4982 126.76 60.1626 126.289 61.2335L129.514 62.0914C129.263 63.9492 128.54 69.684 129.327 70.1872C130.005 70.6194 131.043 72.0708 131.321 71.9934C132.243 71.7289 132.611 67.6391 133.114 65.162C133.662 62.343 133.875 61.2915 134.888 61.1754C138.177 60.6568 141.415 59.8517 144.564 58.7692C148.048 57.4081 149.048 56.2534 149.048 56.2534L150.905 55.0729C151.735 53.8705 152.302 52.507 152.569 51.0711C152.837 49.6352 152.8 48.159 152.46 46.7385Z" fill="#9B084E"/>
<path d="M141.358 79.8053C141.358 79.8053 136.475 80.1343 134.772 79.6827C133.791 79.4491 132.942 78.8369 132.411 77.9797C132.652 78.8766 133.113 79.6992 133.753 80.373C134.998 81.6631 141.358 81.1084 141.358 81.1084V79.8053Z" fill="#8A4040"/>
<path d="M140.113 74.1351L142.345 74.3738C142.253 74.7049 142.055 74.9966 141.781 75.2041C141.507 75.4115 141.173 75.5233 140.829 75.5221C140.21 75.4575 139.894 74.8383 140.113 74.1351Z" fill="#8A4040"/>
<path d="M143.339 65.4265L143.661 71.2258L146.738 69.3615L143.339 65.4265Z" fill="#8A4040"/>
<path d="M140.184 67.4907C140.178 67.7809 140.081 68.0617 139.906 68.2933C139.731 68.5249 139.487 68.6955 139.21 68.7809C139.094 68.8206 138.97 68.831 138.849 68.8112C138.728 68.7913 138.614 68.7417 138.517 68.667C138.42 68.5922 138.343 68.4946 138.293 68.3827C138.242 68.2709 138.221 68.1484 138.23 68.0261C138.237 67.7354 138.336 67.4545 138.512 67.223C138.688 66.9914 138.932 66.8211 139.21 66.736C139.326 66.6958 139.449 66.6852 139.57 66.705C139.691 66.7248 139.805 66.7744 139.902 66.8494C139.998 66.9243 140.075 67.0223 140.124 67.1342C140.174 67.2462 140.194 67.3688 140.184 67.4907Z" fill="#9B084E"/>
<path d="M139.146 64.0654L137.055 65.7813C136.92 65.4703 136.895 65.1225 136.984 64.7952C137.073 64.468 137.271 64.181 137.546 63.9815C137.649 63.8677 137.776 63.7782 137.917 63.7196C138.059 63.661 138.212 63.6347 138.366 63.6428C138.519 63.6508 138.668 63.6929 138.803 63.766C138.938 63.8391 139.055 63.9414 139.146 64.0654Z" fill="#9B084E"/>
<path d="M148.912 62.2592L146.977 61.3045C147.122 61.0059 147.371 60.7702 147.677 60.6409C147.983 60.5116 148.326 60.4976 148.641 60.6014C148.773 60.6882 148.885 60.8014 148.971 60.9338C149.057 61.0663 149.115 61.2151 149.14 61.3709C149.166 61.5267 149.158 61.686 149.119 61.839C149.08 61.9919 149.009 62.135 148.912 62.2592Z" fill="#9B084E"/>
<path d="M148.357 65.0201C148.349 65.3098 148.251 65.5897 148.077 65.8209C147.902 66.0521 147.66 66.2232 147.383 66.3103C147.267 66.35 147.143 66.3604 147.022 66.3406C146.901 66.3207 146.787 66.2712 146.69 66.1964C146.593 66.1216 146.516 66.024 146.466 65.9121C146.416 65.8003 146.394 65.6778 146.403 65.5555C146.41 65.2649 146.509 64.9839 146.685 64.7524C146.861 64.5208 147.105 64.3505 147.383 64.2654C147.499 64.2253 147.623 64.2146 147.743 64.2344C147.864 64.2542 147.978 64.3039 148.075 64.3788C148.172 64.4538 148.248 64.5517 148.297 64.6636C148.347 64.7756 148.367 64.8982 148.357 65.0201Z" fill="#9B084E"/>
</svg>
